<svg xmlns="http://www.w3.org/2000/svg" viewBox="0 0 48 48">
  <linearGradient id="meta-gradient" x1="9.993" x2="40.615" y1="-2.393" y2="32.027" gradientUnits="userSpaceOnUse">
    <stop offset="0" stop-color="#2aa4f4"/>
    <stop offset="1" stop-color="#007ad9"/>
  </linearGradient>
  <path fill="url(#meta-gradient)" d="M24,4C12.954,4,4,12.954,4,24c0,10.028,7.379,18.331,17.004,19.777V28.826h-4.745V24h4.745v-3.19 c0-5.519,2.678-7.846,7.055-7.846c2.11,0,3.225,0.156,3.751,0.226v4.163h-3.004c-1.875,0-2.532,1.778-2.532,3.782V24h5.475 l-0.743,4.826h-4.732v14.975C37.711,42.551,44,34.114,44,24C44,12.954,35.046,4,24,4z"/>
  <path fill="#0081fb" d="M26.707,29h4.686l0.872-5.686h-5.558v-2.651c0-2.427,0.841-4.577,3.062-4.577h2.682V11.6 c-0.47-0.063-1.472-0.208-3.363-0.208c-4.012,0-6.341,2.12-6.341,6.926v4.368H18v5.686h4.748V44.8 c0.949,0.133,1.912,0.2,2.892,0.2c0.904,0,1.794-0.058,2.672-0.166V29z"/>
</svg>

