<svg xmlns="http://www.w3.org/2000/svg" viewBox="0 0 48 48">
  <path fill="#ff4a00" d="M24,4C12.954,4,4,12.954,4,24s8.954,20,20,20s20-8.954,20-20S35.046,4,24,4z"/>
  <path fill="#fff" d="M31.5,21h-4.086l2.889-2.889c0.391-0.391,0.391-1.023,0-1.414l-2-2c-0.391-0.391-1.023-0.391-1.414,0 L24,17.586l-2.889-2.889c-0.391-0.391-1.023-0.391-1.414,0l-2,2c-0.391,0.391-0.391,1.023,0,1.414L20.586,21H16.5 c-0.553,0-1,0.447-1,1v2.828c0,0.553,0.447,1,1,1h4.086l-2.889,2.889c-0.391,0.391-0.391,1.023,0,1.414l2,2 c0.391,0.391,1.023,0.391,1.414,0L24,29.242l2.889,2.889c0.391,0.391,1.023,0.391,1.414,0l2-2c0.391-0.391,0.391-1.023,0-1.414 L27.414,25.828H31.5c0.553,0,1-0.447,1-1V22C32.5,21.447,32.053,21,31.5,21z"/>
</svg>

