<svg xmlns="http://www.w3.org/2000/svg" viewBox="0 0 48 48">
  <path fill="#ff7a59" d="M35.5,18.3v-4.5c1.4-0.7,2.4-2.2,2.4-3.9c0-2.4-1.9-4.3-4.3-4.3s-4.3,1.9-4.3,4.3c0,1.7,1,3.2,2.4,3.9v4.5 c-1.7,0.4-3.3,1.2-4.6,2.3l-12.3-9.6c0.1-0.4,0.2-0.8,0.2-1.2c0-2.4-1.9-4.3-4.3-4.3S6.5,7.5,6.5,9.9s1.9,4.3,4.3,4.3 c0.8,0,1.5-0.2,2.2-0.6l12.1,9.4c-0.8,1.4-1.2,3-1.2,4.7c0,5.3,4.3,9.6,9.6,9.6s9.6-4.3,9.6-9.6C43.1,23.2,39.8,19,35.5,18.3z M33.5,33.1c-3,0-5.4-2.4-5.4-5.4s2.4-5.4,5.4-5.4s5.4,2.4,5.4,5.4S36.5,33.1,33.5,33.1z"/>
</svg>

