<svg xmlns="http://www.w3.org/2000/svg" viewBox="0 0 48 48">
  <path fill="#33d375" d="M33,8c0-2.209-1.791-4-4-4s-4,1.791-4,4c0,2.209,1.791,4,4,4h4V8z"/>
  <path fill="#33d375" d="M29,14c-2.209,0-4,1.791-4,4s1.791,4,4,4h10c2.209,0,4-1.791,4-4s-1.791-4-4-4H29z"/>
  <path fill="#40c4ff" d="M40,26c2.209,0,4-1.791,4-4s-1.791-4-4-4s-4,1.791-4,4v4H40z"/>
  <path fill="#40c4ff" d="M34,22c0,2.209-1.791,4-4,4s-4-1.791-4-4V12c0-2.209,1.791-4,4-4s4,1.791,4,4V22z"/>
  <path fill="#e91e63" d="M15,40c0,2.209,1.791,4,4,4s4-1.791,4-4s-1.791-4-4-4h-4V40z"/>
  <path fill="#e91e63" d="M19,34c2.209,0,4-1.791,4-4s-1.791-4-4-4H9c-2.209,0-4,1.791-4,4s1.791,4,4,4H19z"/>
  <path fill="#ffc107" d="M8,22c-2.209,0-4,1.791-4,4s1.791,4,4,4s4-1.791,4-4v-4H8z"/>
  <path fill="#ffc107" d="M14,26c0-2.209,1.791-4,4-4s4,1.791,4,4v10c0,2.209-1.791,4-4,4s-4-1.791-4-4V26z"/>
</svg>

